<svg xmlns="http://www.w3.org/2000/svg" id="Layer_1" data-name="Layer 1" viewBox="0 0 100 100"><defs><style>.cls-1{fill:#d8d8d8}.cls-2{fill:#6e6e6e}</style></defs><title>6_findadealer</title><path d="M50,1A49,49,0,1,1,1,50,49.05,49.05,0,0,1,50,1m0-1a50,50,0,1,0,50,50A50,50,0,0,0,50,0Z" class="cls-1"/><path d="M63.62,64.45H54.23c-1.71,2.49-2.93,4.13-3,4.28l-1.13,1.5h0l-1.14-1.49c-.11-.15-1.36-1.79-3.09-4.29H36.38L25.56,75H74.44Z" class="cls-2"/><path d="M50.05,67.88A142.16,142.16,0,0,0,60.32,51.8c2.39-4.51,4.25-9.06,4.25-12.29a14.52,14.52,0,0,0-29,0c0,3.31,1.82,7.83,4.16,12.29A133.15,133.15,0,0,0,50.05,67.88ZM42,42.43l1.47-2.88a.2.2,0,0,1,.16-.11h4V38.37a.11.11,0,0,1,.11-.11H53a.11.11,0,0,1,.11.11v1.07h5.57c.06,0,.08.05.05.11l-1.46,2.88a.22.22,0,0,1-.17.11h-4v1.07a.11.11,0,0,1-.11.11H47.76a.11.11,0,0,1-.11-.11V42.54H42.07C42,42.54,42,42.49,42,42.43Z" class="cls-2"/></svg>