<svg xmlns="http://www.w3.org/2000/svg" xmlns:xlink="http://www.w3.org/1999/xlink" id="Layer_1" x="0" y="0" version="1.1" viewBox="0 0 100 100" style="enable-background:new 0 0 100 100" xml:space="preserve"><style type="text/css">.st0{fill:none;stroke:#6f6f6f;stroke-width:4;stroke-miterlimit:10}.st1{fill:#6c6c6c}.st2{fill:none;stroke:#dadada;stroke-miterlimit:10}</style><g><path d="M50,20L50,20L50,20c-16.5,0-30,13.4-30,30c0,6.6,2.1,12.6,5.7,17.6L22,78.7L33.5,75c4.7,3.1,10.4,5,16.5,5 c16.5,0,30-13.4,30-30S66.5,20,50,20z" class="st0"/><path d="M67.4,62.4c-0.7,2-3.6,3.7-5.9,4.2c-1.6,0.3-3.6,0.6-10.5-2.3c-8.8-3.6-14.5-12.6-14.9-13.2 c-0.4-0.6-3.6-4.7-3.6-9s2.2-6.4,3.1-7.3c0.7-0.7,1.9-1.1,3.1-1.1c0.4,0,0.7,0,1,0c0.9,0,1.3,0.1,1.9,1.5c0.7,1.7,2.5,6,2.7,6.5 c0.2,0.4,0.4,1,0.1,1.6c-0.3,0.6-0.5,0.9-1,1.4s-0.9,0.9-1.3,1.4c-0.4,0.5-0.9,1-0.4,1.9c0.5,0.9,2.3,3.7,4.9,6 c3.3,3,6.1,3.9,7,4.3c0.7,0.3,1.6,0.2,2.1-0.3c0.7-0.7,1.5-1.9,2.3-3.1c0.6-0.8,1.4-1,2.2-0.7c0.8,0.3,5.1,2.4,6,2.8 c0.9,0.4,1.5,0.7,1.7,1C68.2,58.6,68.2,60.3,67.4,62.4z" class="st1"/></g><circle cx="49.9" cy="50.1" r="49.5" class="st2"/></svg>