<?xml version="1.0" encoding="utf-8"?>
<!-- Generator: Adobe Illustrator 25.2.3, SVG Export Plug-In . SVG Version: 6.00 Build 0)  -->
<svg version="1.1" id="Layer_1" xmlns="http://www.w3.org/2000/svg" xmlns:xlink="http://www.w3.org/1999/xlink" x="0px" y="0px"
	 viewBox="0 0 115 115" style="enable-background:new 0 0 115 115;" xml:space="preserve">
<style type="text/css">
	.st0{fill:#D8D8D8;}
	.st1{fill:#6E6E6E;}
	.st2{fill:#FFFFFF;}
	.st3{fill:#F1F1F2;}
</style>
<path class="st0" d="M57.5,1.1c31.1,0,56.3,25.2,56.3,56.3s-25.2,56.3-56.3,56.3S1.1,88.6,1.1,57.5S26.4,1.1,57.5,1.1 M57.5,0
	C25.7,0,0,25.7,0,57.5S25.7,115,57.5,115S115,89.3,115,57.5S89.3,0,57.5,0z"/>
<g>
	<path class="st1" d="M78.4,59.8c0.6-0.2,1.1-0.3,1.7-0.3c3,0,5.4,2.4,5.4,5.3c0,2.3-1.4,4.4-3.6,5.1c-0.6,0.2-1.1,0.3-1.7,0.3
		c-1.4,0-2.8-0.5-3.8-1.6c-1-1-1.6-2.4-1.6-3.8C74.8,62.6,76.2,60.5,78.4,59.8z"/>
	<path class="st1" d="M31.5,60c0.6-0.2,1.1-0.3,1.7-0.3c3,0,5.4,2.4,5.4,5.3c0,2.3-1.4,4.4-3.6,5.1c-0.6,0.2-1.1,0.3-1.7,0.3
		c-1.4,0-2.8-0.5-3.8-1.6c-1-1-1.6-2.4-1.6-3.8C27.9,62.8,29.4,60.8,31.5,60z"/>
	<path class="st2" d="M79.2,62.1c0.3-0.1,0.6-0.2,0.9-0.2c1.6,0,2.9,1.3,2.9,2.9c0,1.3-0.8,2.4-2,2.8c-0.3,0.1-0.6,0.2-0.9,0.2
		c-0.8,0-1.5-0.3-2.1-0.8c-0.6-0.5-0.9-1.3-0.9-2.1C77.2,63.6,78,62.5,79.2,62.1z"/>
	<path class="st2" d="M32.3,62.4c0.3-0.1,0.6-0.2,0.9-0.2c1.6,0,2.9,1.3,2.9,2.9c0,1.3-0.8,2.4-2,2.8C34,68,33.6,68,33.3,68
		c-0.8,0-1.5-0.3-2.1-0.8c-0.6-0.5-0.9-1.3-0.9-2.1C30.4,63.9,31.2,62.8,32.3,62.4z"/>
	<path class="st1" d="M61.1,44.7c3.3-0.1,8.7-0.2,12.1,0.5c0,0,0.1,0,0.1,0l2.1-0.7c0,0,0,0.5-0.2,1.2c3.9,1.2,10,3.6,12.5,5l6,0.5
		c0,0,1,0,1,0.9c0,0.9-0.1,5.2,0,5.2c0.1,0.1,1.1,1.1,1.5,1.3c0,0,0.6,6.2-2.6,7.1l-6.9,0.7c0.1-0.4,0.2-1.2,0.2-1.6
		c0-3.8-3.1-6.8-6.9-6.8c-3.8,0-6.8,3.1-6.8,6.9c0,0.5,0.1,1,0.2,1.5l0.2,0.5l-25.1,0.3l-8.7,0l-0.1,0c0.2-0.7,0.3-1.4,0.3-2.1
		c0-3.8-3.1-6.8-6.9-6.8c-3.8,0-6.8,3.1-6.8,6.9c0,0.8,0.1,1.5,0.4,2.1l0.2,0.5c0,0-6.4,0.1-6.8-0.2c-0.4-0.3-0.8-0.7-0.8-1.2
		c0,0-0.5-0.1-0.6-0.7c0-0.6,0.2-0.8,0.2-0.8L19,64.6c0,0-1-4.5,1.6-7.2c0,0-0.3-1.2,4-2.3c4.3-1.1,13-2.5,13.9-2.4l0.4,0.2
		c0,0,8.2-4.5,11.3-5.8C53.2,45.8,57.8,44.8,61.1,44.7z"/>
	<path class="st3" d="M59.8,47.4L59.8,47.4c7.9-0.7,12.9,0.3,15.3,1l0,0c2.2,0.6,4,1.4,4.8,1.8c0,0,0,0,0.1,0
		c0.2,0.1,0.4,0.2,0.5,0.2c0,0,0,0,0,0l0,0c0.4,0.3,0.1,0.6,0.1,0.6s-1.3,0.8-2,1c-0.7,0.3-0.8,0.2-0.8,0.2l-14,0.6l-15.1,0.6
		c0.5-2.6-1.8-2.2-1.8-2.2C52,48.2,57.5,47.6,59.8,47.4z"/>
	<path class="st2" d="M27,56.2c0,0-4.1,0.5-4.6,1s-0.7,1-0.7,1l-0.6,1.3c0,0-0.1,0.3,0.2,0.2c0.4-0.1,2.5-0.7,3.3-0.8s1.1-0.3,1.6-1
		C26.6,57.1,27,56.2,27,56.2z"/>
	<polygon class="st1" points="62.8,46.9 62.5,53.4 59,53.4 60.7,46.7 62.8,46.7 	"/>
</g>
</svg>
