<svg id="Layer_1" data-name="Layer 1" xmlns="http://www.w3.org/2000/svg" viewBox="0 0 100 100"><defs><style>.cls-1{fill:#d8d8d8;}.cls-2{fill:#6e6e6e;}</style></defs><title>1_searchinventory</title><path class="cls-1" d="M50,1A49,49,0,1,1,1,50,49.05,49.05,0,0,1,50,1m0-1a50,50,0,1,0,50,50A50,50,0,0,0,50,0Z"/><path class="cls-2" d="M46.58,47.2a5.46,5.46,0,1,0,5.33,5.45A5.39,5.39,0,0,0,46.58,47.2Z"/><path class="cls-2" d="M61.58,46.75C58.37,43.79,43,41.28,43,41.28a37.41,37.41,0,0,0-8.71-4.6c-.15.17-.29.34-.43.52a17.43,17.43,0,0,0-2.63,16.51c.08.23.18.46.27.69h8.3a7.23,7.23,0,0,1-.21-1.75,7,7,0,1,1,13.55,2.5h4.55a4.84,4.84,0,0,0,1.77-.32L61.39,54A1.07,1.07,0,0,0,62,53V47.77A1.39,1.39,0,0,0,61.58,46.75Z"/><path class="cls-2" d="M66.7,60.93A22.89,22.89,0,1,0,25,47.9,22.88,22.88,0,0,0,47.9,70.79a22.7,22.7,0,0,0,13-4.09l8.3,8.3L75,69.23ZM47.9,67.66A19.77,19.77,0,1,1,67.67,47.9,19.79,19.79,0,0,1,47.9,67.66Z"/></svg>