<?xml version="1.0" encoding="UTF-8"?><svg id="Layer_1" xmlns="http://www.w3.org/2000/svg" viewBox="0 0 181 87"><defs><style>.cls-1{fill:#393839;stroke-width:0px;}</style></defs><path class="cls-1" d="M18.94,72.5c-.64,0-.79.16-.79.78v7.35c0,.64.15.8.8.8h9.23v2.27s-11.08,0-11.08,0c-2.23,0-3.44-.79-3.44-3.54v-6.32c0-2.78,1.21-3.58,3.44-3.58h10.75s0,2.25,0,2.25h-8.91ZM43.26,70.26v5.28h-7.2v-5.28h-4.54v13.44h4.54v-6.01h7.2v6.01h4.53v-13.44h-4.53ZM67.4,72.51l4.13,9.71c.31.7.86,1.49,2.04,1.49h4.23c1.18,0,1.58-.78,1.89-1.48.31-.7,5.06-11.97,5.06-11.97h-3.45l-4.38,11.01c-.08.19-.17.21-.47.21-.3,0-.39-.02-.47-.21l-4.35-11.01h-16.93c-2.23,0-3.44.79-3.44,3.58v6.33c0,2.75,1.21,3.54,3.44,3.54h11.43v-2.27h-9.59c-.64,0-.79-.16-.79-.8v-2.75s9.52,0,9.52,0v-2.22h-9.52v-2.38c0-.62.15-.78.79-.78h10.87ZM111.28,72.48c-.66,0-.78.16-.78.77v7.4c0,.63.15.8.78.8h5.79c.63,0,.78-.17.78-.8v-7.4c0-.61-.15-.77-.78-.77h-5.79M122.35,73.82v6.35c0,2.76-1.21,3.53-3.45,3.53h-9.45c-2.23,0-3.44-.77-3.44-3.53v-6.35c0-2.79,1.22-3.56,3.44-3.56h9.45c2.23,0,3.45.77,3.45,3.56M130.04,81.44v-11.18h-4.51v13.44h12.65v-2.26h-8.14ZM142.61,70.26c-2.22,0-3.44.79-3.44,3.58v6.32c0,2.76,1.22,3.54,3.44,3.54h11.44v-2.26h-9.59c-.64,0-.8-.16-.8-.8v-2.76h9.48v-2.24h-9.49v-2.37c0-.62.16-.77.79-.77h14.96s0,11.2,0,11.2h4.52v-11.21h5.18v-2.23h-26.5ZM98.49,79.33l-1.51-.71v-.11s3.29,0,3.29,0c1.51,0,2.87-.85,2.87-2.89v-2.32c0-2.23-1.15-3.05-2.87-3.05h-14.11v13.44h4.47v-11.25h7.46c.41,0,.52.12.54.36v3.36c-.02.22-.25.36-.54.36h-6.17v2.05s6.25,5.11,6.25,5.11h6.21l-5.89-4.37ZM29.43,37.79l8.13-15.94h34.08v-11.15h38.14v11.15h42.31l-8.13,15.94h-34.18v11.15h-38.14v-11.15H29.43ZM116.24,4.23h-51.06v11.15H26.82l-14.69,28.87h53.04v11.15h51.06v-11.15h38.45l14.69-28.87h-53.15V4.23Z"/></svg>